<?xml version="1.0" standalone="no"?>
<!DOCTYPE svg PUBLIC "-//W3C//DTD SVG 20010904//EN"
 "http://www.w3.org/TR/2001/REC-SVG-20010904/DTD/svg10.dtd">
<svg version="1.0" xmlns="http://www.w3.org/2000/svg"
 width="16.000000pt" height="16.000000pt" viewBox="0 0 16.000000 16.000000"
 preserveAspectRatio="xMidYMid meet">
<metadata>
Created by potrace 1.16, written by Peter Selinger 2001-2019
</metadata>
<g transform="translate(0.000000,16.000000) scale(0.003125,-0.003125)"
fill="#000000" stroke="none">
<path d="M995 4829 c-238 -31 -478 -151 -655 -329 -177 -176 -289 -396 -325
-637 -22 -146 -22 -1316 0 -1453 78 -478 447 -859 923 -951 l62 -12 0 -521 c0
-487 2 -524 19 -562 14 -31 30 -47 63 -63 54 -26 81 -26 133 -2 27 13 222 202
600 580 l560 561 846 0 c713 0 860 2 935 15 491 85 869 466 949 955 22 137 22
1307 0 1453 -61 409 -345 757 -735 904 -36 14 -103 34 -150 46 -84 21 -94 21
-1620 23 -862 1 -1566 -2 -1605 -7z m1584 -1012 c25 -12 53 -33 62 -47 10 -14
104 -306 209 -650 191 -623 191 -625 175 -656 -27 -50 -106 -88 -183 -89 -86
0 -97 15 -141 178 l-34 127 -211 0 -212 0 -34 -127 c-37 -140 -57 -171 -111
-179 -89 -14 -219 57 -219 119 0 42 367 1246 389 1277 54 75 204 98 310 47z
m-707 2 c43 -23 62 -126 34 -193 -27 -65 -31 -66 -328 -66 l-268 0 0 -170 0
-170 169 0 169 0 26 -31 c20 -24 26 -41 26 -79 0 -115 -27 -130 -235 -130
l-155 0 0 -260 c0 -165 -4 -268 -11 -283 -33 -72 -194 -88 -273 -26 l-26 20 0
665 c0 457 3 672 11 685 24 45 51 48 457 49 256 0 390 -4 404 -11z m2016 -4
c133 -32 222 -97 276 -205 53 -106 58 -163 53 -557 -3 -282 -7 -357 -20 -394
-53 -156 -153 -246 -314 -282 l-58 -13 -5 -80 c-6 -91 -10 -101 -57 -121 -28
-11 -42 -12 -69 -3 -47 16 -64 53 -64 138 l0 68 -62 13 c-161 33 -271 137
-313 296 -22 85 -22 753 0 838 42 160 146 262 310 303 70 17 247 17 323 -1z"/>
<path d="M2386 3203 c-37 -137 -69 -256 -72 -265 -5 -17 6 -18 141 -18 135 0
146 1 141 18 -3 9 -35 127 -72 262 -36 135 -67 246 -68 248 -2 1 -33 -109 -70
-245z"/>
<path d="M3645 3546 c-39 -17 -64 -46 -81 -93 -19 -55 -19 -661 0 -716 14 -39
42 -77 58 -77 4 0 8 24 8 54 0 44 5 60 26 85 22 26 33 31 70 31 68 0 94 -31
94 -110 0 -33 4 -60 9 -60 20 0 60 63 71 112 8 36 11 152 8 358 -3 296 -4 306
-26 348 -17 31 -35 49 -65 63 -49 22 -129 24 -172 5z"/>
</g>
</svg>
