<?xml version="1.0"?>
<svg xmlns="http://www.w3.org/2000/svg" viewBox="0 0 512 512" width="512" height="512"><g id="Solid"><polygon points="288 281.966 328 293.394 328 246.035 288 234.606 288 281.966"/><path d="M264,400a8,8,0,0,1,5.47-7.589l20.2-6.736L295.567,368l-4.814-14.442-24.813,6.2a8,8,0,0,1-7.6-2.1l-7.585-7.585c-24.645,19.584-49.6,36.13-73.56,48.826l1.469,1.1H192a8,8,0,0,1,7.92,6.869l6.112,42.812A198.85,198.85,0,0,0,236,455l4.24-16.945a8,8,0,0,1,3.323-4.714L264,419.719Zm-24,8H224V392h16Z"/><path d="M80,332V296a7.993,7.993,0,0,1,1.344-4.438l16-24a8,8,0,0,1,3.685-2.99l38.475-15.39,12.5-12.5V200a8,8,0,0,1,2.343-5.657l24-24A8,8,0,0,1,188.8,169.6l31.823,23.867,19.22,12.814,49.11-35.079,5.919-23.673-19.31-12.873a8,8,0,0,1-3.151-4.126l-6.736-20.2L221.47,95.589a8,8,0,0,1-5.28-9.325l6.093-27.407C128,74.932,56,157.21,56,256a198.842,198.842,0,0,0,17.2,81.1ZM248,152h16v16H248ZM144,120h16v16H144Zm-40,96h16v16H104Z"/><path d="M176,416a8,8,0,0,1-4.8-1.6l-10.02-7.515q-12.25,5.707-23.977,9.907a199.749,199.749,0,0,0,51.925,27.7L185.061,416Z"/><polygon points="336 216.32 309.121 224 336 231.68 362.879 224 336 216.32"/><path d="M239.382,338.7,228.687,328H216a7.993,7.993,0,0,1-4.438-1.344l-20.137-13.425-26.686,13.344L150.217,341.1l-12.6,18.9L149.9,378.422,163,388.251C187.625,375.894,213.614,359.052,239.382,338.7ZM176,336h16v16H176Z"/><path d="M346.343,386.343,360,372.686V328a8,8,0,0,1,5.47-7.589L409.3,305.8l14.935-59.739a8,8,0,0,1,3.578-4.879l25.833-15.848A199,199,0,0,0,416.8,137.207c-6.614,18.534-16.175,38.28-28.556,58.91l-13.718-8.234c13.964-23.268,24.141-45.226,30.3-65.347A199.545,199.545,0,0,0,256,56c-5.676,0-11.293.251-16.851.717l-5.774,25.975L274.53,96.411a8,8,0,0,1,5.059,5.059l7.133,21.4,21.716,14.478a8,8,0,0,1,3.323,8.6l-8,32a8,8,0,0,1-3.111,4.57l-56,40a8,8,0,0,1-9.088.146l-24-16q-.185-.123-.362-.256l-26.45-19.837L168,203.313V240a8,8,0,0,1-2.343,5.657l-16,16a8.01,8.01,0,0,1-2.686,1.771l-37.693,15.077L96,298.422V336a8,8,0,0,1-3.2,6.4l-12.382,9.289a201.3,201.3,0,0,0,42.12,53.131,237.33,237.33,0,0,0,24.022-8.9l-7.36-5.52a8.014,8.014,0,0,1-1.856-1.962l-16-24a8,8,0,0,1,0-8.876l16-24a8.052,8.052,0,0,1,1-1.219l16-16a7.986,7.986,0,0,1,2.079-1.5l32-16a8,8,0,0,1,8.016.5L218.422,312H232a8,8,0,0,1,5.657,2.343l14.2,14.2q11.439-9.571,22.709-19.991l10.872,11.74q-11,10.188-22.227,19.6l3.245,3.245,27.606-6.9a8,8,0,0,1,9.529,5.231l8,24a7.992,7.992,0,0,1,0,5.06l-8,24a8,8,0,0,1-5.059,5.059L280,405.766V424a8,8,0,0,1-3.562,6.656L255.01,444.941l-2.755,11.011c1.247.023,2.493.048,3.745.048a198.8,198.8,0,0,0,105.956-30.45l-16.9-29.581A8,8,0,0,1,346.343,386.343ZM336,312a8.012,8.012,0,0,1-2.2-.308l-56-16A8,8,0,0,1,272,288V224a8,8,0,0,1,5.8-7.692l56-16a7.991,7.991,0,0,1,4.4,0l56,16A8,8,0,0,1,400,224v64a8,8,0,0,1-5.8,7.692l-56,16A8.012,8.012,0,0,1,336,312Z"/><path d="M455.562,242.931,438.969,253.11l-15.208,60.83a8,8,0,0,1-5.231,5.649L376,333.766V376a8,8,0,0,1-2.343,5.657l-11.679,11.679,13.23,23.156A199.831,199.831,0,0,0,456,256C456,251.608,455.842,247.253,455.562,242.931ZM408,360H392V344h16Z"/><polygon points="344 293.394 384 281.966 384 234.606 344 246.035 344 293.394"/><path d="M310.592,47.072a8.06,8.06,0,0,0,4.339-.339c15.522-5.646,29.913-9.027,42.456-9.923,18.669-1.333,32.793,2.644,41.976,11.827,7.864,7.864,15.305,22.987,10.746,51.605a8.011,8.011,0,0,0,1.961,6.645h0a7.993,7.993,0,0,0,13.812-4.137c4.484-28.485-.656-50.878-15.2-65.427-12.611-12.611-30.922-18.149-54.431-16.473-14.215,1.016-29.894,4.654-46.832,10.843A8.014,8.014,0,0,0,310.592,47.072Z"/><path d="M106.889,412.072a8.012,8.012,0,0,0-6.646-1.962c-28.619,4.556-43.743-2.884-51.606-10.747-9.183-9.182-13.162-23.305-11.827-41.976.9-12.543,4.277-26.934,9.923-42.456a8.01,8.01,0,1,0-15.04-5.517c-6.189,16.938-9.827,32.617-10.843,46.832-1.68,23.506,3.862,41.82,16.473,54.431,11.153,11.153,26.913,16.779,46.5,16.779a121.808,121.808,0,0,0,18.887-1.57,7.993,7.993,0,0,0,4.182-13.814Z"/></g></svg>
